# File created by Blade
# Date/Time:  Thu Jan 22 16:10:22 2015
#---------------------------------------------------------
:version 1.10
:name HOM
:units
  mass 1.0
  length 1.000000
  angle deg
:documentation
     Acclaim Skeleton File
:root
   axis xyz
   order TX TY TZ RX RY RZ
   position 0.000000 0.000000 0.000000
   orientation 0 0 0
:bonedata
   begin
      id 1
      name RightUpLeg_dum
      direction -1.000000 0.000000 0.000000
      length 3.766986
      axis 0.0 0.0 0.0 xyz
   end
   begin
      id 2
      name LeftUpLeg_dum
      direction 1.000000 0.000000 0.000000
      length 3.766986
      axis 0.0 0.0 0.0 xyz
   end
   begin
      id 3
      name Spine_dum
      direction 0.000000 1.000000 0.000000
      length 7.779697
      axis 0.0 0.0 0.0 xyz
   end
   begin
      id 4
      name RightUpLeg
      direction 0.000000 -1.000000 0.000000
      length 18.017682
      axis 0.0 0.0 0.0 xyz
      dof rx ry rz
   end
   begin
      id 5
      name RightLeg
      direction 0.000000 -1.000000 0.000000
      length 16.881075
      axis 0.0 0.0 0.0 xyz
      dof rx ry rz
   end
   begin
      id 6
      name RightFoot
      direction 0.000000 -0.258819 0.965926
      length 5.770812
      axis 15.0 0.0 0.0 xyz
      dof rx ry rz
   end
   begin
      id 7
      name RightToeBase
      direction 0.000000 0.000000 1.000000
      length 2.952750
      axis 0.0 0.0 0.0 xyz
      dof rx ry rz
   end
   begin
      id 8
      name LeftUpLeg
      direction 0.000000 -1.000000 0.000000
      length 18.017682
      axis 0.0 0.0 0.0 xyz
      dof rx ry rz
   end
   begin
      id 9
      name LeftLeg
      direction 0.000000 -1.000000 0.000000
      length 16.881075
      axis 0.0 0.0 0.0 xyz
      dof rx ry rz
   end
   begin
      id 10
      name LeftFoot
      direction 0.000000 -0.258819 0.965926
      length 5.770812
      axis 15.0 0.0 0.0 xyz
      dof rx ry rz
   end
   begin
      id 11
      name LeftToeBase
      direction 0.000000 0.000000 1.000000
      length 2.952750
      axis 0.0 0.0 0.0 xyz
      dof rx ry rz
   end
   begin
      id 12
      name Spine
      direction 0.000000 1.000000 0.000000
      length 0.000000
      axis 0.0 0.0 0.0 xyz
      dof rx ry rz
   end
   begin
      id 13
      name Spine_dum1
      direction 0.000000 1.000000 0.000000
      length 10.941760
      axis 0.0 0.0 0.0 xyz
   end
   begin
      id 14
      name Spine_dum2
      direction 0.000000 1.000000 0.000000
      length 10.941760
      axis 0.0 0.0 0.0 xyz
   end
   begin
      id 15
      name Spine_dum3
      direction 0.000000 1.000000 0.000000
      length 16.646042
      axis 0.0 0.0 0.0 xyz
   end
   begin
      id 16
      name RightShoulder
      direction -1.000000 0.000000 0.000000
      length 7.708937
      axis 0.0 0.0 90.0 xyz
      dof rx ry rz
   end
   begin
      id 17
      name RightArm
      direction -1.000000 0.000000 0.000000
      length 11.521345
      axis 0.0 0.0 90.0 xyz
      dof rx ry rz
   end
   begin
      id 18
      name RightForeArm
      direction -1.000000 0.000000 0.000000
      length 10.175898
      axis 0.0 0.0 90.0 xyz
      dof ry rz rx
   end
   begin
      id 19
      name RightHand
      direction -1.000000 0.000000 0.000000
      length 0.000000
      axis 0.0 0.0 90.0 xyz
      dof rx ry rz
   end
   begin
      id 20
      name RightHand_dum1
      direction -1.000000 0.000000 0.000000
      length 3.937000
      axis 0.0 0.0 90.0 xyz
   end
   begin
      id 21
      name RightHand_dum2
      direction 0.000000 0.000000 0.000000
      length 0.000000
      axis 0.0 0.0 90.0 xyz
   end
   begin
      id 22
      name RightHandThumb1
      direction 0.000000 0.000000 1.000000
      length 3.937000
      axis 0.0 0.0 90.0 xyz
      dof rx rz ry
   end
   begin
      id 23
      name LeftShoulder
      direction 1.000000 0.000000 0.000000
      length 7.708937
      axis 0.0 0.0 -90.0 xyz
      dof rx ry rz
   end
   begin
      id 24
      name LeftArm
      direction 1.000000 0.000000 0.000000
      length 11.521345
      axis 0.0 0.0 -90.0 xyz
      dof rx ry rz
   end
   begin
      id 25
      name LeftForeArm
      direction 1.000000 0.000000 0.000000
      length 10.175898
      axis 0.0 0.0 -90.0 xyz
      dof ry rz rx
   end
   begin
      id 26
      name LeftHand
      direction 1.000000 0.000000 0.000000
      length 0.000000
      axis 0.0 0.0 -90.0 xyz
      dof rx ry rz
   end
   begin
      id 27
      name LeftHand_dum1
      direction 1.000000 0.000000 0.000000
      length 3.937000
      axis 0.0 0.0 -90.0 xyz
   end
   begin
      id 28
      name LeftHand_dum2
      direction 0.000000 0.000000 0.000000
      length 0.000000
      axis 0.0 0.0 -90.0 xyz
   end
   begin
      id 29
      name LeftHandThumb1
      direction 0.000000 0.000000 1.000000
      length 3.937000
      axis 0.0 0.0 -90.0 xyz
      dof rx rz ry
   end
   begin
      id 30
      name Head
      direction 0.000000 1.000000 0.000000
      length 4.527550
      axis 0.0 0.0 0.0 xyz
      dof rx ry rz
   end
:hierarchy
   begin
      root RightUpLeg_dum LeftUpLeg_dum Spine_dum
      RightUpLeg_dum RightUpLeg
      LeftUpLeg_dum LeftUpLeg
      Spine_dum Spine
      RightUpLeg RightLeg
      RightLeg RightFoot
      RightFoot RightToeBase
      LeftUpLeg LeftLeg
      LeftLeg LeftFoot
      LeftFoot LeftToeBase
      Spine Spine_dum1 Spine_dum2 Spine_dum3
      Spine_dum1 RightShoulder
      Spine_dum2 LeftShoulder
      Spine_dum3 Head
      RightShoulder RightArm
      RightArm RightForeArm
      RightForeArm RightHand
      RightHand RightHand_dum1 RightHand_dum2
      RightHand_dum2 RightHandThumb1
      LeftShoulder LeftArm
      LeftArm LeftForeArm
      LeftForeArm LeftHand
      LeftHand LeftHand_dum1 LeftHand_dum2
      LeftHand_dum2 LeftHandThumb1
   end

# File created by Blade
# Date/Time:  Thu Jan 22 16:10:14 2015
# Frame Rate: 120.000 fps
#------------------------------------------------------
:FULLY-SPECIFIED
:DEGREES
527
root -1.757173 34.153880 -0.720250 13.303521 16.761883 -16.640663
RightUpLeg -10.539921 -17.067605 1.342062
RightLeg -7.091394 -0.000000 0.000000
RightFoot -6.515223 -29.393779 32.261923
RightToeBase 13.906241 -0.000000 -0.000000
LeftUpLeg -26.671131 11.039269 40.826816
LeftLeg 1.937507 -0.000000 -0.000000
LeftFoot 5.591797 6.842213 -33.527871
LeftToeBase 8.745991 -0.000000 -0.000000
Spine 31.152944 -13.492287 -33.437363
RightShoulder -5.960466 -12.269601 -31.378767
RightArm -6.002467 34.626634 35.789863
RightForeArm 20.616255 -0.000000 19.924273
RightHand 9.096087 0.000000 -27.828010
RightHandThumb1 -24.326973 -0.000000 -32.862282
LeftShoulder -16.438492 30.508020 19.633251
LeftArm 44.065443 -47.706181 -52.078331
LeftForeArm 29.967714 -0.000000 7.480810
LeftHand -18.644497 -0.000000 3.981447
LeftHandThumb1 -26.253704 0.000000 33.147579
Head -8.433239 18.585093 -16.946379
528
root -1.747355 34.151327 -0.738597 13.474497 16.989002 -16.660942
RightUpLeg -10.716956 -17.151863 1.411574
RightLeg -7.090587 -0.000000 0.000000
RightFoot -6.559463 -29.513520 32.339200
RightToeBase 13.985784 -0.000000 -0.000000
LeftUpLeg -27.031084 11.015956 40.812035
LeftLeg 1.979324 -0.000000 -0.000000
LeftFoot 5.627850 6.902980 -33.540386
LeftToeBase 8.765113 -0.000000 -0.000000
Spine 31.476655 -13.369046 -33.875850
RightShoulder -5.932862 -12.170764 -31.504169
RightArm -6.312086 34.469757 35.471265
RightForeArm 20.765865 -0.000000 19.891385
RightHand 9.152949 0.000000 -27.896712
RightHandThumb1 -24.326973 -0.000000 -32.862282
LeftShoulder -16.200916 30.423768 19.629098
LeftArm 44.204126 -47.716409 -51.923850
LeftForeArm 29.892260 -0.000000 7.413131
LeftHand -18.603468 -0.000000 4.140520
LeftHandThumb1 -26.253704 0.000000 33.147579
Head -8.638326 18.343993 -17.230602
529
root -1.737391 34.148255 -0.754919 13.627106 17.218058 -16.671142
RightUpLeg -10.868369 -17.256536 1.469840
RightLeg -7.101951 -0.000000 0.000000
RightFoot -6.578087 -29.635564 32.365293
RightToeBase 13.906126 -0.000000 -0.000000
LeftUpLeg -27.370721 11.023404 40.769201
LeftLeg 1.999224 -0.000000 -0.000000
LeftFoot 5.716138 6.942881 -33.550400
LeftToeBase 8.756217 -0.000000 -0.000000
Spine 31.843241 -13.274368 -34.350965
RightShoulder -5.894111 -12.168566 -31.634958
RightArm -6.478348 34.323270 35.228641
RightForeArm 20.848151 -0.000000 19.831584
RightHand 8.844666 -0.000000 -27.751594
RightHandThumb1 -24.326973 -0.000000 -32.862282
LeftShoulder -15.965376 30.276582 19.665238
LeftArm 44.229445 -47.738678 -51.771852
LeftForeArm 29.780311 -0.000000 7.367333
LeftHand -18.399667 0.000000 4.266814
LeftHandThumb1 -26.253704 0.000000 33.147579
Head -8.921407 18.304475 -17.507488
530
root -1.726947 34.143536 -0.766316 13.762918 17.473131 -16.697373
RightUpLeg -11.004973 -17.434781 1.557898
RightLeg -7.117251 -0.000000 0.000000
RightFoot -6.549227 -29.745171 32.367761
RightToeBase 13.861879 -0.000000 -0.000000
LeftUpLeg -27.715825 11.076778 40.714236
LeftLeg 2.007521 -0.000000 -0.000000
LeftFoot 5.841015 6.952419 -33.607594
LeftToeBase 8.835661 -0.000000 -0.000000
Spine 32.205469 -13.161255 -34.785991
RightShoulder -5.831147 -12.107849 -31.748510
RightArm -6.760879 34.232343 34.903725
RightForeArm 20.958989 -0.000000 19.765838
RightHand 9.148455 -0.000000 -27.996924
RightHandThumb1 -24.326973 -0.000000 -32.862282
LeftShoulder -15.648580 30.201745 19.765213
LeftArm 44.279805 -47.814177 -51.731260
LeftForeArm 29.823591 -0.000000 7.426785
LeftHand -18.410374 0.000000 3.826027
LeftHandThumb1 -26.253704 0.000000 33.147579
Head -9.105310 18.141165 -17.754129
531
root -1.716414 34.140112 -0.785758 13.941755 17.709976 -16.711541
RightUpLeg -11.209124 -17.575133 1.636006
RightLeg -7.104757 -0.000000 0.000000
RightFoot -6.557671 -29.892383 32.426252
RightToeBase 13.996611 -0.000000 -0.000000
LeftUpLeg -28.098275 11.135438 40.649086
LeftLeg 2.033155 -0.000000 -0.000000
LeftFoot 5.961606 7.011668 -33.677467
LeftToeBase 8.898883 -0.000000 -0.000000
Spine 32.555925 -13.070767 -35.206635
RightShoulder -5.831569 -11.912314 -31.914997
RightArm -7.026964 34.056473 34.592165
RightForeArm 20.859113 -0.000000 19.678477
RightHand 8.943979 0.000000 -27.909575
RightHandThumb1 -24.326973 -0.000000 -32.862282
LeftShoulder -15.370651 30.081174 19.784072
LeftArm 44.257498 -47.832246 -51.510298
LeftForeArm 29.802184 -0.000000 7.418540
LeftHand -18.390242 -0.000000 4.044093
LeftHandThumb1 -26.253704 0.000000 33.147579
Head -9.378960 18.180055 -18.034036
532
root -1.707671 34.134222 -0.803418 14.122767 17.986951 -16.751423
RightUpLeg -11.418675 -17.783677 1.766939
RightLeg -7.106402 -0.000000 0.000000
RightFoot -6.512475 -30.036215 32.435468
RightToeBase 13.947922 -0.000000 -0.000000
LeftUpLeg -28.517790 11.185583 40.614699
LeftLeg 2.066846 -0.000000 -0.000000
LeftFoot 6.090536 7.044565 -33.729223
LeftToeBase 9.013180 -0.000000 -0.000000
Spine 32.909103 -13.038792 -35.583653
RightShoulder -5.756935 -11.718353 -32.081845
RightArm -7.377313 33.801718 34.223952
RightForeArm 21.073068 -0.000000 19.619797
RightHand 9.237583 0.000000 -28.359011
RightHandThumb1 -24.326973 -0.000000 -32.862282
LeftShoulder -15.154406 30.011026 19.793647
LeftArm 44.427529 -47.892209 -51.497484
LeftForeArm 29.734360 -0.000000 7.370727
LeftHand -18.359011 0.000000 4.149472
LeftHandThumb1 -26.253704 0.000000 33.147579
Head -9.659404 18.234024 -18.324324
533
root -1.695619 34.129397 -0.821947 14.333253 18.252568 -16.756479
RightUpLeg -11.657955 -18.053076 1.882312
RightLeg -7.102042 -0.000000 0.000000
RightFoot -6.452452 -30.115157 32.417160
RightToeBase 13.977826 -0.000000 -0.000000
LeftUpLeg -28.932743 11.235795 40.534432
LeftLeg 2.066609 -0.000000 -0.000000
LeftFoot 6.216178 7.092664 -33.818849
LeftToeBase 9.207445 -0.000000 -0.000000
Spine 33.231370 -12.990167 -35.986106
RightShoulder -5.734379 -11.635999 -32.210035
RightArm -7.586081 33.639109 33.910372
RightForeArm 21.197458 -0.000000 19.541936
RightHand 9.328829 -0.000000 -28.518247
RightHandThumb1 -24.326973 -0.000000 -32.862282
LeftShoulder -14.878551 29.967817 19.836644
LeftArm 44.560670 -47.972725 -51.478514
LeftForeArm 29.760626 -0.000000 7.365160
LeftHand -18.155804 -0.000000 3.894028
LeftHandThumb1 -26.253704 0.000000 33.147579
Head -9.888024 18.255710 -18.606095
534
root -1.685547 34.124716 -0.840314 14.548735 18.479187 -16.773545
RightUpLeg -11.895185 -18.255095 2.001728
RightLeg -7.127348 -0.000000 0.000000
RightFoot -6.351618 -30.223297 32.367770
RightToeBase 13.992527 -0.000000 -0.000000
LeftUpLeg -29.307847 11.297424 40.479490
LeftLeg 2.050337 -0.000000 -0.000000
LeftFoot 6.324295 7.125000 -33.914919
LeftToeBase 9.373698 -0.000000 -0.000000
Spine 33.530731 -12.908325 -36.376368
RightShoulder -5.771025 -11.537158 -32.339613
RightArm -7.747558 33.561402 33.634252
RightForeArm 21.241059 0.000000 19.521306
RightHand 9.325528 0.000000 -28.673735
RightHandThumb1 -24.326973 -0.000000 -32.862282
LeftShoulder -14.618364 29.808167 19.875648
LeftArm 44.504224 -47.905316 -51.198262
LeftForeArm 29.643958 -0.000000 7.324152
LeftHand -18.109613 -0.000000 3.861635
LeftHandThumb1 -26.253704 0.000000 33.147579
Head -10.159104 18.411298 -18.832467
535
root -1.672162 34.120273 -0.853572 14.785503 18.710992 -16.737523
RightUpLeg -12.130155 -18.544604 2.089703
RightLeg -7.158504 -0.000000 0.000000
RightFoot -6.244494 -30.237395 32.322624
RightToeBase 13.973540 -0.000000 -0.000000
LeftUpLeg -29.662156 11.337159 40.374882
LeftLeg 1.968934 -0.000000 -0.000000
LeftFoot 6.443338 7.225375 -34.065187
LeftToeBase 9.609621 -0.000000 -0.000000
Spine 33.799501 -12.846751 -36.836580
RightShoulder -5.727886 -11.502731 -32.461959
RightArm -7.946190 33.507280 33.359319
RightForeArm 21.313966 -0.000000 19.523130
RightHand 9.453874 -0.000000 -28.812586
RightHandThumb1 -24.326973 -0.000000 -32.862282
LeftShoulder -14.349644 29.742826 19.945138
LeftArm 44.538102 -47.907086 -51.042363
LeftForeArm 29.612364 -0.000000 7.268390
LeftHand -18.012481 -0.000000 3.870094
LeftHandThumb1 -26.253704 0.000000 33.147579
Head -10.363288 18.346313 -19.084246
536
root -1.659111 34.117885 -0.870159 15.027785 18.900481 -16.711734
RightUpLeg -12.377884 -18.755930 2.176862
RightLeg -7.193981 -0.000000 0.000000
RightFoot -6.121351 -30.296921 32.238390
RightToeBase 13.976401 -0.000000 -0.000000
LeftUpLeg -29.998565 11.433828 40.261966
LeftLeg 1.901288 -0.000000 -0.000000
LeftFoot 6.578560 7.268904 -34.174336
LeftToeBase 9.611426 -0.000000 -0.000000
Spine 34.046717 -12.735178 -37.281867
RightShoulder -5.692788 -11.527581 -32.573447
RightArm -8.128520 33.479255 33.105352
RightForeArm 21.268274 -0.000000 19.571406
RightHand 9.349758 -0.000000 -29.081795
RightHandThumb1 -24.326973 -0.000000 -32.862282
LeftShoulder -14.045573 29.604891 20.060707
LeftArm 44.480091 -47.862102 -50.833506
LeftForeArm 29.486902 -0.000000 7.233218
LeftHand -18.005111 -0.000000 4.000310
LeftHandThumb1 -26.253704 0.000000 33.147579
Head -10.597720 18.354472 -19.265537
537
root -1.644168 34.116486 -0.885213 15.233249 19.063900 -16.677279
RightUpLeg -12.582012 -18.942241 2.237342
RightLeg -7.230411 -0.000000 0.000000
RightFoot -6.021837 -30.364906 32.185994
RightToeBase 13.957950 -0.000000 -0.000000
LeftUpLeg -30.282506 11.574750 40.109319
LeftLeg 1.807258 -0.000000 -0.000000
LeftFoot 6.747508 7.320132 -34.270141
LeftToeBase 9.628638 -0.000000 -0.000000
Spine 34.360088 -12.587672 -37.768806
RightShoulder -5.672953 -11.404468 -32.685739
RightArm -8.349578 33.347654 32.832980
RightForeArm 21.332702 -0.000000 19.590872
RightHand 9.400131 -0.000000 -29.304995
RightHandThumb1 -24.326973 -0.000000 -32.862282
LeftShoulder -13.766834 29.379177 20.211987
LeftArm 44.255857 -47.756515 -50.530660
LeftForeArm 29.455688 0.000000 7.283954
LeftHand -18.052155 -0.000000 3.805812
LeftHandThumb1 -26.253704 0.000000 33.147579
Head -10.937379 18.466007 -19.443006
538
root -1.628963 34.115280 -0.897195 15.435162 19.201880 -16.637947
RightUpLeg -12.765401 -19.101111 2.284160
RightLeg -7.285455 -0.000000 0.000000
RightFoot -5.907293 -30.425514 32.116649
RightToeBase 13.954499 -0.000000 -0.000000
LeftUpLeg -30.534951 11.709135 39.964845
LeftLeg 1.717883 -0.000000 -0.000000
LeftFoot 6.893584 7.354536 -34.459191
LeftToeBase 9.663030 -0.000000 -0.000000
Spine 34.662818 -12.415143 -38.269073
RightShoulder -5.651589 -11.388489 -32.792287
RightArm -8.506037 33.282911 32.615272
RightForeArm 21.334092 -0.000000 19.629976
RightHand 9.200238 -0.000000 -29.212160
RightHandThumb1 -24.326973 -0.000000 -32.862282
LeftShoulder -13.506559 29.245172 20.339159
LeftArm 44.227993 -47.779613 -50.403745
LeftForeArm 29.417403 -0.000000 7.317395
LeftHand -18.225577 -0.000000 3.626153
LeftHandThumb1 -26.253704 0.000000 33.147579
Head -11.281600 18.571779 -19.607612
539
root -1.612461 34.113533 -0.909282 15.619887 19.346127 -16.597046
RightUpLeg -12.925824 -19.249505 2.319655
RightLeg -7.340891 -0.000000 0.000000
RightFoot -5.801735 -30.488534 32.048966
RightToeBase 13.903692 -0.000000 -0.000000
LeftUpLeg -30.790127 11.830248 39.816292
LeftLeg 1.646810 -0.000000 -0.000000
LeftFoot 7.043839 7.398596 -34.645449
LeftToeBase 9.631579 -0.000000 -0.000000
Spine 35.009052 -12.224822 -38.763081
RightShoulder -5.666506 -11.347581 -32.884528
RightArm -8.650381 33.103167 32.393750
RightForeArm 21.479944 -0.000000 19.654099
RightHand 9.544691 -0.000000 -29.688477
RightHandThumb1 -24.326973 -0.000000 -32.862282
LeftShoulder -13.262671 29.027585 20.450846
LeftArm 44.210755 -47.802867 -50.240094
LeftForeArm 29.326243 -0.000000 7.278629
LeftHand -18.195611 -0.000000 4.098211
LeftHandThumb1 -26.253704 0.000000 33.147579
Head -11.696166 18.727857 -19.765649
